name analog
datacolumns 19
datarows 42
range 0.17500000000000002 0.1955
endheader
time	ground_force_vx	ground_force_vy	ground_force_vz	ground_force_px	ground_force_py	ground_force_pz	l_ground_force_vx	l_ground_force_vy	l_ground_force_vz	l_ground_force_px	l_ground_force_py	l_ground_force_pz	ground_torque_x	ground_torque_y	ground_torque_z	l_ground_torque_x	l_ground_torque_y	l_ground_torque_z
0.17500000000000002	-0.0	-0.0	-0.0	-4.917670726776123	56.12260055541992	-387.6890869140625	-5.862296104431152	-72.78074645996094	-479.4433288574219	-0.0	-0.0	-0.0	-0.0	-0.0	-0.0	109483.984375	-7631.47900390625	-1457.6409912109375
0.17550000000000002	-0.0	-0.0	-0.0	-7.519153594970703	54.629669189453125	-378.91888427734375	-7.189207077026367	-75.2681655883789	-495.4890747070313	-0.0	-0.0	-0.0	-0.0	-0.0	-0.0	112210.015625	-7475.50390625	-2046.245849609375
0.176	-0.0	-0.0	-0.0	-9.142634391784668	53.2000732421875	-369.3977355957031	-8.711616516113281	-77.91761779785156	-509.4263610839844	-0.0	-0.0	-0.0	-0.0	-0.0	-0.0	115373.5703125	-7437.5556640625	-2491.705322265625
0.1765	-0.0	-0.0	-0.0	-10.883682250976562	51.688594818115234	-361.3588562011719	-9.960227012634276	-81.08281707763672	-521.674072265625	-0.0	-0.0	-0.0	-0.0	-0.0	-0.0	117944.5546875	-7273.3505859375	-2843.410400390625
0.177	-0.0	-0.0	-0.0	-11.985525131225586	50.0565185546875	-354.239501953125	-11.781156539916992	-82.65525817871094	-533.2639770507812	-0.0	-0.0	-0.0	-0.0	-0.0	-0.0	120629.8984375	-7317.59228515625	-3146.421630859375
0.1775	-0.0	-0.0	-0.0	-13.820820808410645	48.3944091796875	-350.9530334472656	-11.621112823486328	-83.93269348144531	-546.46240234375	-0.0	-0.0	-0.0	-0.0	-0.0	-0.0	123152.1796875	-7202.52294921875	-3318.881103515625
0.178	-0.0	-0.0	-0.0	-14.633869171142578	47.32490539550781	-343.33062744140625	-11.20095443725586	-85.86531829833984	-558.6951904296875	-0.0	-0.0	-0.0	-0.0	-0.0	-0.0	125707.578125	-7668.896484375	-3263.156494140625
0.1785	-0.0	-0.0	-0.0	-15.52923583984375	46.11012649536133	-336.541259765625	-11.51259994506836	-87.86693572998047	-569.1951293945312	-0.0	-0.0	-0.0	-0.0	-0.0	-0.0	128458.859375	-7763.55126953125	-3289.135986328125
0.179	-0.0	-0.0	-0.0	-16.41796112060547	45.45973205566406	-330.4613952636719	-10.366260528564451	-89.21133422851562	-582.4102783203125	-0.0	-0.0	-0.0	-0.0	-0.0	-0.0	130923.84375	-7754.978515625	-3021.7861328125
0.1795	-0.0	-0.0	-0.0	-17.297330856323242	44.28514862060547	-323.1094665527344	-9.675809860229492	-91.06912231445312	-593.5951538085938	-0.0	-0.0	-0.0	-0.0	-0.0	-0.0	133472.234375	-8060.916015625	-2849.156005859375
0.18	-0.0	-0.0	-0.0	-17.23326873779297	43.13286590576172	-314.6214294433594	-8.776116371154785	-92.91130065917967	-603.0217895507812	-0.0	-0.0	-0.0	-0.0	-0.0	-0.0	135686.28125	-8536.4482421875	-2554.419921875
0.1805	-0.0	-0.0	-0.0	-17.488311767578125	42.07564926147461	-308.25360107421875	-7.46085786819458	-94.41891479492188	-611.4005126953125	-0.0	-0.0	-0.0	-0.0	-0.0	-0.0	136979.796875	-8417.3740234375	-2432.075927734375
0.181	-0.0	-0.0	-0.0	-17.039207458496094	41.52574157714844	-299.17919921875	-6.475887298583984	-95.9053726196289	-615.63720703125	-0.0	-0.0	-0.0	-0.0	-0.0	-0.0	138633.515625	-8692.8896484375	-2371.41845703125
0.1815	-0.0	-0.0	-0.0	-16.501008987426758	40.55433654785156	-292.4446105957031	-6.218557357788086	-97.24801635742188	-624.574462890625	-0.0	-0.0	-0.0	-0.0	-0.0	-0.0	139638.359375	-8911.052734375	-2252.9453125
0.182	-0.0	-0.0	-0.0	-16.22768211364746	39.0362434387207	-287.8416748046875	-6.121044158935547	-98.38177490234376	-630.2186279296875	-0.0	-0.0	-0.0	-0.0	-0.0	-0.0	140303.5	-8680.9677734375	-2225.44287109375
0.1825	-0.0	-0.0	-0.0	-15.960176467895508	37.543731689453125	-279.4102478027344	-5.769035339355469	-99.36753845214844	-632.0090942382812	-0.0	-0.0	-0.0	-0.0	-0.0	-0.0	140955.484375	-8766.103515625	-2253.197509765625
0.183	-0.0	-0.0	-0.0	-15.957642555236816	36.26780700683594	-275.44757080078125	-5.860430717468262	-101.13107299804688	-633.753662109375	-0.0	-0.0	-0.0	-0.0	-0.0	-0.0	141248.03125	-8778.001953125	-2310.29541015625
0.1835	-0.0	-0.0	-0.0	-15.355010986328123	34.58259582519531	-267.0040283203125	-6.379073143005371	-102.09986877441406	-636.175537109375	-0.0	-0.0	-0.0	-0.0	-0.0	-0.0	141309.3125	-8964.5263671875	-2400.8837890625
0.184	-0.0	-0.0	-0.0	-15.7010498046875	33.505062103271484	-263.4301147460937	-6.475887298583984	-103.15178680419922	-636.4824829101562	-0.0	-0.0	-0.0	-0.0	-0.0	-0.0	141505.546875	-8749.484375	-2522.585693359375
0.1845	-0.0	-0.0	-0.0	-15.59633731842041	31.26412010192871	-256.6800231933594	-7.102031707763672	-103.06111907958984	-637.5101928710938	-0.0	-0.0	-0.0	-0.0	-0.0	-0.0	141613.671875	-8616.0595703125	-2529.921875
0.185	-0.0	-0.0	-0.0	-15.61692237854004	29.04635429382324	-248.99185180664065	-7.626585006713867	-103.23792266845705	-637.5408935546875	-0.0	-0.0	-0.0	-0.0	-0.0	-0.0	141561.34375	-8749.5927734375	-2646.333251953125
0.1855	-0.0	-0.0	-0.0	-16.50147819519043	26.909988403320312	-245.7741851806641	-7.7277092933654785	-102.46298217773438	-637.153076171875	-0.0	-0.0	-0.0	-0.0	-0.0	-0.0	141455.9375	-8480.7021484375	-2797.7041015625
0.186	-0.0	-0.0	-0.0	-16.605276107788086	25.214216232299805	-238.0816650390625	-8.154114723205566	-102.0902099609375	-634.7481689453125	-0.0	-0.0	-0.0	-0.0	-0.0	-0.0	141426.359375	-8840.9794921875	-2852.24755859375
0.1865	-0.0	-0.0	-0.0	-16.88207244873047	24.151975631713867	-233.82383728027344	-7.981603622436523	-100.44296264648438	-632.3135986328125	-0.0	-0.0	-0.0	-0.0	-0.0	-0.0	140869.78125	-9058.5380859375	-2971.886962890625
0.187	-0.0	-0.0	-0.0	-18.020523071289062	22.82195854187012	-227.80105590820312	-8.329645156860352	-99.1898193359375	-632.572509765625	-0.0	-0.0	-0.0	-0.0	-0.0	-0.0	140276.171875	-9025.7548828125	-3084.21484375
0.1875	-0.0	-0.0	-0.0	-18.381860733032227	22.36274719238281	-224.5690460205078	-8.250102996826172	-97.9375457763672	-625.6796875	-0.0	-0.0	-0.0	-0.0	-0.0	-0.0	139607.9375	-9090.134765625	-3116.556396484375
0.188	-0.0	-0.0	-0.0	-18.82122802734375	21.48480033874512	-218.945556640625	-8.16358470916748	-96.00567626953124	-621.8131103515625	-0.0	-0.0	-0.0	-0.0	-0.0	-0.0	138902.640625	-9198.134765625	-3202.04443359375
0.1885	-0.0	-0.0	-0.0	-19.093162536621094	20.769495010375977	-213.33741760253903	-8.689422607421875	-94.3233413696289	-620.4090576171875	-0.0	-0.0	-0.0	-0.0	-0.0	-0.0	138475.5625	-9286.98046875	-3380.05078125
0.189	-0.0	-0.0	-0.0	-19.0848331451416	19.958999633789062	-208.7129364013672	-8.248026847839355	-92.8999481201172	-616.5772705078125	-0.0	-0.0	-0.0	-0.0	-0.0	-0.0	137807.84375	-9836.9931640625	-3234.567138671875
0.1895	-0.0	-0.0	-0.0	-19.34869766235352	19.525543212890625	-205.87228393554688	-8.054673194885254	-91.5012664794922	-612.7689819335938	-0.0	-0.0	-0.0	-0.0	-0.0	-0.0	137267.171875	-9832.615234375	-3145.0322265625
0.19	-0.0	-0.0	-0.0	-18.29009246826172	19.51955795288086	-199.97657775878903	-7.717838287353516	-90.09198760986328	-608.9357299804688	-0.0	-0.0	-0.0	-0.0	-0.0	-0.0	136978.28125	-10222.09375	-3084.41796875
0.1905	-0.0	-0.0	-0.0	-18.639307022094727	19.066326141357425	-199.20098876953125	-8.699360847473145	-88.49266052246094	-607.5238037109375	-0.0	-0.0	-0.0	-0.0	-0.0	-0.0	136692.40625	-10678.8896484375	-3261.408447265625
0.191	-0.0	-0.0	-0.0	-17.927669525146484	19.059349060058597	-195.0202178955078	-9.05397891998291	-87.09064483642578	-605.8355712890625	-0.0	-0.0	-0.0	-0.0	-0.0	-0.0	136490.078125	-10875.9375	-3205.05517578125
0.1915	-0.0	-0.0	-0.0	-17.403099060058594	18.36790657043457	-192.49700927734372	-9.406878471374512	-86.1136474609375	-607.8590087890625	-0.0	-0.0	-0.0	-0.0	-0.0	-0.0	136566.859375	-11135.740234375	-3146.242919921875
0.192	-0.0	-0.0	-0.0	-17.12841796875	17.730073928833008	-190.3776092529297	-9.324990272521973	-84.97578430175781	-606.8595581054688	-0.0	-0.0	-0.0	-0.0	-0.0	-0.0	136772.46875	-11815.759765625	-3262.17333984375
0.1925	-0.0	-0.0	-0.0	-17.222564697265625	17.01897621154785	-190.3509521484375	-9.497007369995115	-84.78224182128906	-605.8235473632812	-0.0	-0.0	-0.0	-0.0	-0.0	-0.0	137086.03125	-12064.9658203125	-3289.124755859375
0.193	-0.0	-0.0	-0.0	-17.039207458496094	15.16498565673828	-187.18536376953125	-9.49527359008789	-84.42591094970703	-607.1430053710938	-0.0	-0.0	-0.0	-0.0	-0.0	-0.0	136940.03125	-12417.763671875	-3115.94921875
0.1935	-0.0	-0.0	-0.0	-16.773103713989258	14.346940994262695	-185.7423858642578	-9.322307586669922	-83.4639892578125	-606.8134765625	-0.0	-0.0	-0.0	-0.0	-0.0	-0.0	137147.078125	-13219.4287109375	-2993.207275390625
0.194	-0.0	-0.0	-0.0	-16.06523895263672	13.897001266479492	-184.66075134277344	-9.310202598571776	-82.84868621826172	-604.748046875	-0.0	-0.0	-0.0	-0.0	-0.0	-0.0	136715.5	-14137.3759765625	-2965.88623046875
0.1945	-0.0	-0.0	-0.0	-15.882326126098633	12.481108665466309	-179.4040985107422	-9.044195175170898	-82.39698791503906	-604.7249145507812	-0.0	-0.0	-0.0	-0.0	-0.0	-0.0	136820.40625	-14480.474609375	-2873.669189453125
0.195	-0.0	-0.0	-0.0	-16.22684669494629	12.649761199951172	-178.3397979736328	-8.869718551635742	-81.77912139892578	-601.9266967773438	-0.0	-0.0	-0.0	-0.0	-0.0	-0.0	136455.296875	-15289.6142578125	-2637.97021484375
0.1955	-0.0	-0.0	-0.0	-15.43341827392578	11.85305118560791	-176.23678588867188	-8.34141731262207	-80.7247314453125	-599.5035400390625	-0.0	-0.0	-0.0	-0.0	-0.0	-0.0	136200.15625	-16076.2060546875	-2486.374755859375
